<?xml version="1.0" encoding="UTF-8"?>
<!DOCTYPE svg PUBLIC "-//W3C//DTD SVG 1.1//EN" "http://www.w3.org/Graphics/SVG/1.1/DTD/svg11.dtd">
<!-- Creator: CorelDRAW 2018 (64-Bit Evaluation Version) -->
<svg xmlns="http://www.w3.org/2000/svg" xml:space="preserve" width="4.7724mm" height="11.811mm" version="1.1" style="shape-rendering:geometricPrecision; text-rendering:geometricPrecision; image-rendering:optimizeQuality; fill-rule:evenodd; clip-rule:evenodd"
viewBox="0 0 680.97 1685.31"
 xmlns:xlink="http://www.w3.org/1999/xlink">
 <defs>
  <style type="text/css">
   <![CDATA[
    .fil1 {fill:#7D7D7D}
    .fil0 {fill:#E7E7E7}
   ]]>
  </style>
 </defs>
 <g id="Layer_x0020_1">
  <metadata id="CorelCorpID_0Corel-Layer"/>
  <path class="fil0" d="M-0 1685.31l0 -1685.31 427 0c139.69,0 253.97,114.28 253.97,253.97l0 1177.36c0,139.69 -114.28,253.97 -253.97,253.97l-427 0z"/>
  <path class="fil1" d="M153.96 737.35l0 0c7.26,-6.82 18.76,-6.45 25.63,0.81l160.51 170.16 161.28 -170.97c6.86,-7.26 18.36,-7.63 25.63,-0.81l0 0c7.28,6.83 7.63,18.35 0.78,25.63l-170.21 180.45c-0.96,2.27 -2.38,4.38 -4.28,6.16l0 0c-7.28,6.83 -18.78,6.46 -25.63,-0.81l-1.47 -1.56 -173.03 -183.43c-6.85,-7.28 -6.49,-18.79 0.78,-25.63z"/>
 </g>
</svg>
