<?xml version="1.0" encoding="UTF-8" standalone="no"?>
<svg
   xmlns:dc="http://purl.org/dc/elements/1.1/"
   xmlns:cc="http://creativecommons.org/ns#"
   xmlns:rdf="http://www.w3.org/1999/02/22-rdf-syntax-ns#"
   xmlns:svg="http://www.w3.org/2000/svg"
   xmlns="http://www.w3.org/2000/svg"
   xmlns:sodipodi="http://sodipodi.sourceforge.net/DTD/sodipodi-0.dtd"
   xmlns:inkscape="http://www.inkscape.org/namespaces/inkscape"
   inkscape:version="1.0 (4035a4fb49, 2020-05-01)"
   height="34.644001"
   width="50"
   sodipodi:docname="concierge-bell.svg"
   id="svg10"
   xml:space="preserve"
   enable-background="new 0 0 50 50"
   viewBox="0 0 50 34.644001"
   y="0px"
   x="0px"
   version="1.1"><metadata
     id="metadata16"><rdf:RDF><cc:Work
         rdf:about=""><dc:format>image/svg+xml</dc:format><dc:type
           rdf:resource="http://purl.org/dc/dcmitype/StillImage" /></cc:Work></rdf:RDF></metadata><defs
     id="defs14" /><sodipodi:namedview
     inkscape:current-layer="g4"
     inkscape:window-maximized="1"
     inkscape:window-y="-8"
     inkscape:window-x="-8"
     inkscape:cy="81.957679"
     inkscape:cx="77.020428"
     inkscape:zoom="3.632"
     showgrid="false"
     id="namedview12"
     inkscape:window-height="1057"
     inkscape:window-width="1920"
     inkscape:pageshadow="2"
     inkscape:pageopacity="0"
     guidetolerance="10"
     gridtolerance="10"
     objecttolerance="10"
     borderopacity="1"
     bordercolor="#666666"
     pagecolor="#ffffff" /><g
     transform="translate(0,-7.678)"
     id="g4"><path
       sodipodi:nodetypes="cccccccccccccccccccccccccsscccc"
       id="path2"
       d="M 20.297,18.785 C 14.271,20.446 9.472,25.11 7.634,31.083 L 7.267,32.278 4.877,31.543 5.244,30.349 C 7.332,23.561 12.783,18.263 19.63,16.377 l 1.204,-0.333 C 26.32891,14.572179 33.795356,15.706257 35.223693,17.292235 35.196162,17.393683 32.053036,16.030736 21.5,18.452 Z M 50,39.482 H 0 v 2.84 H 50 Z M 42.499,18.716 C 38.322,14.539 32.662,11.845 26.376,11.49 v -0.971 0 0 C 26.058398,9.4371823 25.532643,9.4246034 24.968735,9.2048561 24.361613,9.3729174 23.755954,9.7056576 23.536,10.519 v 0 0 0.971 C 17.25,11.845 11.59,14.539 7.413,18.716 2.924,23.205 0.146,29.408 0.146,36.259 v 1.42 h 49.619 v -1.42 C 49.766,29.408 46.989,23.205 42.499,18.716 Z"
       clip-rule="evenodd"
       fill-rule="evenodd" /></g></svg>
