<?xml version="1.0" encoding="UTF-8" standalone="no"?>
<svg
   xmlns:dc="http://purl.org/dc/elements/1.1/"
   xmlns:cc="http://creativecommons.org/ns#"
   xmlns:rdf="http://www.w3.org/1999/02/22-rdf-syntax-ns#"
   xmlns:svg="http://www.w3.org/2000/svg"
   xmlns="http://www.w3.org/2000/svg"
   xmlns:sodipodi="http://sodipodi.sourceforge.net/DTD/sodipodi-0.dtd"
   xmlns:inkscape="http://www.inkscape.org/namespaces/inkscape"
   inkscape:version="1.0 (4035a4fb49, 2020-05-01)"
   sodipodi:docname="cancel.svg"
   id="svg4"
   version="1.1"
   viewBox="0 0 32 32"
   height="32"
   width="32">
  <metadata
     id="metadata10">
    <rdf:RDF>
      <cc:Work
         rdf:about="">
        <dc:format>image/svg+xml</dc:format>
        <dc:type
           rdf:resource="http://purl.org/dc/dcmitype/StillImage" />
      </cc:Work>
    </rdf:RDF>
  </metadata>
  <defs
     id="defs8" />
  <sodipodi:namedview
     inkscape:current-layer="svg4"
     inkscape:window-maximized="1"
     inkscape:window-y="-8"
     inkscape:window-x="-8"
     inkscape:cy="17.083697"
     inkscape:cx="10.600075"
     inkscape:zoom="17.708333"
     showgrid="false"
     id="namedview6"
     inkscape:window-height="1017"
     inkscape:window-width="1920"
     inkscape:pageshadow="2"
     inkscape:pageopacity="0"
     guidetolerance="10"
     gridtolerance="10"
     objecttolerance="10"
     borderopacity="1"
     bordercolor="#666666"
     pagecolor="#ffffff" />
  <path
     sodipodi:nodetypes="ccccccccccccc"
     style="fill:#000000;stroke-width:0.461176"
     id="path2"
     d="m 21.534118,20.185637 -4.235445,-4.194401 4.193016,-4.230832 -1.306051,-1.294523 -4.192095,4.233139 -4.231755,-4.191172 -1.295906,1.295906 4.236367,4.199012 -4.1944,4.235445 1.295906,1.295907 4.20224,-4.239136 4.2336,4.196706 z" />
  <path
     d="M 16,0 C 7.1639999,0 0,7.164 0,16 0,24.837 7.1639999,32 16,32 24.837,32 32,24.837 32,16 32,7.1640001 24.837,0 16,0 Z m 0,28 C 9.3829998,28 3.9999999,22.617 3.9999999,16 3.9999999,9.383 9.3829998,4.0000001 16,4.0000001 22.617,4.0000001 28,9.383 28,16 28,22.617 22.617,28 16,28 Z"
     id="path2-8"
     inkscape:connector-curvature="0"
     style="fill:#000000" />
</svg>
