<?xml version="1.0" encoding="UTF-8" standalone="no"?>
<svg
   xmlns:dc="http://purl.org/dc/elements/1.1/"
   xmlns:cc="http://creativecommons.org/ns#"
   xmlns:rdf="http://www.w3.org/1999/02/22-rdf-syntax-ns#"
   xmlns:svg="http://www.w3.org/2000/svg"
   xmlns="http://www.w3.org/2000/svg"
   xmlns:sodipodi="http://sodipodi.sourceforge.net/DTD/sodipodi-0.dtd"
   xmlns:inkscape="http://www.inkscape.org/namespaces/inkscape"
   inkscape:version="1.0 (4035a4fb49, 2020-05-01)"
   sodipodi:docname="edit_circle.svg"
   xml:space="preserve"
   enable-background="new 0 0 34 34"
   viewBox="0 0 32 32"
   height="32"
   width="32"
   y="0px"
   x="0px"
   id="Layer_1"
   version="1.1"><metadata
   id="metadata13"><rdf:RDF><cc:Work
       rdf:about=""><dc:format>image/svg+xml</dc:format><dc:type
         rdf:resource="http://purl.org/dc/dcmitype/StillImage" /></cc:Work></rdf:RDF></metadata><defs
   id="defs11" /><sodipodi:namedview
   inkscape:document-rotation="0"
   inkscape:current-layer="g6"
   inkscape:window-maximized="1"
   inkscape:window-y="-8"
   inkscape:window-x="-8"
   inkscape:cy="16"
   inkscape:cx="-26.833"
   inkscape:zoom="6.9411765"
   showgrid="false"
   id="namedview9"
   inkscape:window-height="1017"
   inkscape:window-width="1920"
   inkscape:pageshadow="2"
   inkscape:pageopacity="0"
   guidetolerance="10"
   gridtolerance="10"
   objecttolerance="10"
   borderopacity="1"
   bordercolor="#666666"
   pagecolor="#ffffff" />
<g
   transform="translate(-1.333,-1)"
   id="g6">
	<path
   style="fill:#000000"
   inkscape:connector-curvature="0"
   id="path2"
   d="m 17.333,1 c -8.836,0 -16,7.164 -16,16 0,8.837 7.164,16 16,16 8.837,0 16,-7.163 16,-16 0,-8.836 -7.163,-16 -16,-16 z m 0,28 c -6.617,0 -12,-5.383 -12,-12 0,-6.617 5.383,-12 12,-12 6.617,0 12,5.383 12,12 0,6.617 -5.383,12 -12,12 z" />
	
<g
   style="fill:#000000"
   id="svg_1"
   transform="matrix(0.15239265,0,0,0.15239265,9.7133678,9.3803674)"><path
     d="m 90.044889,25.000879 -7.3,7.3 -15,-15 7.5,-7.5 c 1.7,-1.7 4.9,-1.7 6.8,0 l 8.4,8.4 c 1.5,1.9 1.5,4.9 -0.4,6.8 z"
     id="svg_2"
     inkscape:connector-curvature="0"
     style="fill:#000000" /><path
     d="m 13.144889,72.100879 c 6.3,3.2 11.6,8.4 14.8,14.6 v 0 l -16.9,4.7 c -1.5,0.4 -2.9,-0.9 -2.5,-2.4 z m 18.7,11.1 c -3.4,-6.3 -8.7,-11.8 -15,-15 l 47.3,-47.2 15,15 z"
     id="svg_3"
     inkscape:connector-curvature="0"
     style="fill:#000000" /></g></g>
</svg>
