<?xml version="1.0" encoding="utf-8"?>
<!-- Generator: Adobe Illustrator 25.4.1, SVG Export Plug-In . SVG Version: 6.00 Build 0)  -->
<svg version="1.1" id="Capa_1" xmlns="http://www.w3.org/2000/svg" xmlns:xlink="http://www.w3.org/1999/xlink" x="0px" y="0px" viewBox="0 0 562 563.3" style="enable-background:new 0 0 562 563.3;" xml:space="preserve">
<g>
	<path fill="#ec394e" d="M468.8,91.3C418.7,41.2,352,13.6,281,13.6c-71,0-137.7,27.6-187.8,77.7c-50.1,50.1-77.7,116.8-77.7,187.8c0,71,27.6,137.7,77.7,187.8C143.3,517,210,544.6,281,544.6c71,0,137.7-27.6,187.8-77.7c50.1-50.1,77.7-116.8,77.7-187.8C546.5,208.1,518.9,141.5,468.8,91.3z M281,485.6c-55.2,0-107.1-21.5-146.1-60.4c-39-39-60.4-90.8-60.4-146.1c0-55.2,21.5-107.1,60.4-146.1c39-39,90.8-60.4,146.1-60.4c55.2,0,107.1,21.5,146.1,60.4c39,39,60.4,90.8,60.4,146.1c0,55.2-21.5,107.1-60.4,146.1C388.1,464.1,336.2,485.6,281,485.6z M319.2,279.1l54.4-54.4c5.1-5.1,7.9-11.9,7.9-19.1s-2.8-14-7.9-19.1c-5.1-5.1-11.9-7.9-19.1-7.9s-14,2.8-19.1,7.9L281,240.9l-54.4-54.4c-5.1-5.1-11.9-7.9-19.1-7.9c-7.2,0-14,2.8-19.1,7.9c-10.5,10.5-10.5,27.7,0,38.2l54.4,54.4l-54.4,54.4c-5.1,5.1-7.9,11.9-7.9,19.1c0,7.2,2.8,14,7.9,19.1c10.5,10.5,27.7,10.5,38.2,0l54.4-54.4l54.4,54.4c5.1,5.1,11.9,7.9,19.1,7.9c7.2,0,14-2.8,19.1-7.9c5.1-5.1,7.9-11.9,7.9-19.1c0-7.2-2.8-14-7.9-19.1L319.2,279.1z"/>
</g>
</svg>