<?xml version="1.0" encoding="UTF-8" standalone="no"?>
<svg
   xmlns:dc="http://purl.org/dc/elements/1.1/"
   xmlns:cc="http://creativecommons.org/ns#"
   xmlns:rdf="http://www.w3.org/1999/02/22-rdf-syntax-ns#"
   xmlns:svg="http://www.w3.org/2000/svg"
   xmlns="http://www.w3.org/2000/svg"
   xmlns:sodipodi="http://sodipodi.sourceforge.net/DTD/sodipodi-0.dtd"
   xmlns:inkscape="http://www.inkscape.org/namespaces/inkscape"
   inkscape:version="1.0 (4035a4fb49, 2020-05-01)"
   height="911.38928"
   width="911.38928"
   sodipodi:docname="eye.svg"
   xml:space="preserve"
   viewBox="0 0 911.38927 911.38925"
   y="0px"
   x="0px"
   id="Capa_1"
   version="1.1"><metadata
   id="metadata47"><rdf:RDF><cc:Work
       rdf:about=""><dc:format>image/svg+xml</dc:format><dc:type
         rdf:resource="http://purl.org/dc/dcmitype/StillImage" /></cc:Work></rdf:RDF></metadata><defs
   id="defs45" /><sodipodi:namedview
   inkscape:document-rotation="0"
   inkscape:current-layer="g6"
   inkscape:window-maximized="1"
   inkscape:window-y="-8"
   inkscape:window-x="-8"
   inkscape:cy="455.69512"
   inkscape:cx="-6.67279"
   inkscape:zoom="0.50284126"
   showgrid="false"
   id="namedview43"
   inkscape:window-height="1017"
   inkscape:window-width="1920"
   inkscape:pageshadow="2"
   inkscape:pageopacity="0"
   guidetolerance="10"
   gridtolerance="10"
   objecttolerance="10"
   borderopacity="1"
   bordercolor="#666666"
   pagecolor="#ffffff" />
    <g
   transform="translate(222.02762,221.02762)"
   id="g10">
        <g
   id="g8">
            <g
   id="g6">
                <path
   style="fill:#000000"
   inkscape:connector-curvature="0"
   id="path2"
   d="m 233.66701,170.66701 c -35.307,0 -64,28.693 -64,64 0,35.307 28.693,64 64,64 35.307,0 64,-28.693 64,-64 0,-35.307 -28.694,-64 -64,-64 z" />
                <path
   style="fill:#000000;stroke-width:1.10233"
   sodipodi:nodetypes="scscssssss"
   inkscape:connector-curvature="0"
   id="path4"
   d="m 234.88215,74.667011 c -129.61556,0 -206.282527,66.345999 -251.129778,159.999999 44.847251,93.653 121.514218,160 251.129778,160 129.74437,0 203.85225,-66.347 248.6995,-160 C 438.7344,141.01301 364.62652,74.667011 234.88215,74.667011 Z m 0,266.665999 c -71.54757,0 -129.61556,-47.787 -129.61556,-106.667 0,-58.88 58.06799,-106.666 129.61556,-106.666 71.54757,0 129.61557,47.787 129.61557,106.667 0,58.88 -58.068,106.666 -129.61557,106.666 z" />
            <path
   d="m 233.66701,-221.02762 c -251.657356,0 -455.69463,204.03727 -455.69463,455.69466 0,251.68586 204.037274,455.6946 455.69463,455.6946 251.6858,0 455.69464,-204.00874 455.69464,-455.6946 0,-251.65739 -204.00884,-455.69466 -455.69464,-455.69466 z m 0,797.46565 c -188.458162,0 -341.77097,-153.31277 -341.77097,-341.77099 0,-188.458209 153.312808,-341.77101 341.77097,-341.77101 188.45826,0 341.77097,153.312801 341.77097,341.77101 0,188.45822 -153.31271,341.77099 -341.77097,341.77099 z"
   id="path2-2"
   inkscape:connector-curvature="0"
   style="fill:#000000;stroke-width:28.4811" /></g>
        </g>
    </g>
    <g
   transform="translate(222.02762,221.02762)"
   id="g12" />
    <g
   transform="translate(222.02762,221.02762)"
   id="g14" />
    <g
   transform="translate(222.02762,221.02762)"
   id="g16" />
    <g
   transform="translate(222.02762,221.02762)"
   id="g18" />
    <g
   transform="translate(222.02762,221.02762)"
   id="g20" />
    <g
   transform="translate(222.02762,221.02762)"
   id="g22" />
    <g
   transform="translate(222.02762,221.02762)"
   id="g24" />
    <g
   transform="translate(222.02762,221.02762)"
   id="g26" />
    <g
   transform="translate(222.02762,221.02762)"
   id="g28" />
    <g
   transform="translate(222.02762,221.02762)"
   id="g30" />
    <g
   transform="translate(222.02762,221.02762)"
   id="g32" />
    <g
   transform="translate(222.02762,221.02762)"
   id="g34" />
    <g
   transform="translate(222.02762,221.02762)"
   id="g36" />
    <g
   transform="translate(222.02762,221.02762)"
   id="g38" />
    <g
   transform="translate(222.02762,221.02762)"
   id="g40" />
</svg>
